<svg xmlns="http://www.w3.org/2000/svg" class="svg" width="1008" height="700" style="display: block;">
<defs><style type="text/css"><![CDATA[
:root { overflow: hidden; }
.svg { background-color: rgb(255, 255, 255); }
.node circle { cursor: pointer; stroke: rgb(255, 255, 255); stroke-width: 1.5px; }
.node text { font-size: 10px; pointer-events: none; text-anchor: middle; font-family: SfRoboto, sans-serif; font-weight: normal; font-style: normal; fill: rgb(0, 0, 0); }
.link { fill: none; stroke: rgb(128, 128, 128); stroke-width: 0.5px; }
.outlink { fill: none; stroke: rgb(255, 141, 141); stroke-width: 1.5px; }
.inlink { fill: none; stroke: rgb(171, 183, 216); stroke-width: 1.5px; }]]></style></defs>
    <g transform="translate(-538.6745776281853,-461.4010935193602) scale(2.119905566794564)"><line class="link" x1="488.5050248035031" y1="326.6002110254642" x2="432.67429875555376" y2="350.2279252850844"/><line class="link" x1="488.5050248035031" y1="326.6002110254642" x2="503.4035524891317" y2="267.26222051784976"/><line class="link" x1="488.5050248035031" y1="326.6002110254642" x2="520.6132610928939" y2="381.9751718437829"/><line class="link" x1="488.5050248035031" y1="326.6002110254642" x2="428.79905782015834" y2="316.6300397832943"/><line class="link" x1="488.5050248035031" y1="326.6002110254642" x2="535.7575440190996" y2="288.4921784097948"/><line class="link" x1="488.5050248035031" y1="326.6002110254642" x2="453.83077016641687" y2="376.1846629576143"/><line class="link" x1="488.5050248035031" y1="326.6002110254642" x2="448.5577147352766" y2="281.4196134331006"/><line class="link" x1="488.5050248035031" y1="326.6002110254642" x2="543.962566385343" y2="349.70055662998664"/><line class="link" x1="503.4035524891317" y1="267.26222051784976" x2="455.32792391770107" y2="231.13656215480526"/><line class="link" x1="520.6132610928939" y1="381.9751718437829" x2="580.8576374611229" y2="373.27263648921036"/><line class="link" x1="520.6132610928939" y1="381.9751718437829" x2="545.0737441481841" y2="437.39863901144645"/><line class="link" x1="520.6132610928939" y1="381.9751718437829" x2="472.60520810775813" y2="419.02599734955805"/><line class="link" x1="520.6132610928939" y1="381.9751718437829" x2="574.3204341270814" y2="410.16490845489164"/><line class="link" x1="520.6132610928939" y1="381.9751718437829" x2="503.58868140328343" y2="440.13444076580174"/><line class="link" x1="520.6132610928939" y1="381.9751718437829" x2="557.2293192728001" y2="333.0040898643548"/><g class="node" transform="translate(488.5050248035031, 326.6002110254642)"><circle r="20" style="fill: rgb(69, 114, 24);"/><text dy=".15em">mos2es.com</text></g><g class="node" transform="translate(432.67429875555376, 350.2279252850844)"><circle r="12.5" style="fill: rgb(150, 218, 82);"/><text dy=".15em">press</text></g><g class="node" transform="translate(503.4035524891317, 267.26222051784976)"><circle r="12.5" style="fill: rgb(150, 218, 82);"/><text dy=".15em">demovideo</text></g><g class="node" transform="translate(520.6132610928939, 381.9751718437829)"><circle r="12.5" style="fill: rgb(150, 218, 82);"/><text dy=".15em">benchmarks</text></g><g class="node" transform="translate(428.79905782015834, 316.6300397832943)"><circle r="12.5" style="fill: rgb(150, 218, 82);"/><text dy=".15em">deck</text></g><g class="node" transform="translate(535.7575440190996, 288.4921784097948)"><circle r="12.5" style="fill: rgb(150, 218, 82);"/><text dy=".15em">governance-vacuum</text></g><g class="node" transform="translate(448.5577147352766, 281.4196134331006)"><circle r="12.5" style="fill: rgb(226, 126, 126);"/><text dy=".15em">field-sheet</text></g><g class="node" transform="translate(543.962566385343, 349.70055662998664)"><circle r="12.5" style="fill: rgb(150, 218, 82);"/><text dy=".15em">legal</text></g><g class="node" transform="translate(455.32792391770107, 231.13656215480526)"><circle r="5" style="fill: rgb(230, 246, 213);"/><text dy=".15em"/></g><g class="node" transform="translate(580.8576374611229, 373.27263648921036)"><circle r="5" style="fill: rgb(230, 246, 213);"/><text dy=".15em"/></g><g class="node" transform="translate(545.0737441481841, 437.39863901144645)"><circle r="5" style="fill: rgb(230, 246, 213);"/><text dy=".15em"/></g><g class="node" transform="translate(472.60520810775813, 419.02599734955805)"><circle r="5" style="fill: rgb(230, 246, 213);"/><text dy=".15em"/></g><g class="node" transform="translate(574.3204341270814, 410.16490845489164)"><circle r="5" style="fill: rgb(230, 246, 213);"/><text dy=".15em"/></g><g class="node" transform="translate(503.58868140328343, 440.13444076580174)"><circle r="5" style="fill: rgb(230, 246, 213);"/><text dy=".15em"/></g><g class="node" transform="translate(557.2293192728001, 333.0040898643548)"><circle r="5" style="fill: rgb(230, 246, 213);"/><text dy=".15em"/></g><g class="node" transform="translate(453.83077016641687, 376.1846629576143)"><circle r="12.5" style="fill: rgb(150, 218, 82);"/><text dy=".15em">papers</text></g></g>
  </svg>