<svg xmlns="http://www.w3.org/2000/svg" class="svg" width="1008" height="700" style="display: block;">
<defs><style type="text/css"><![CDATA[
:root { overflow: hidden; }
.svg { background-color: rgb(255, 255, 255); }
.node circle { cursor: pointer; stroke: rgb(255, 255, 255); stroke-width: 1.5px; }
.node text { font-size: 10px; pointer-events: none; text-anchor: middle; font-family: SfRoboto, sans-serif; font-weight: normal; font-style: normal; fill: rgb(0, 0, 0); }
.link { fill: none; stroke: rgb(128, 128, 128); stroke-width: 0.5px; }
.outlink { fill: none; stroke: rgb(255, 141, 141); stroke-width: 1.5px; }
.inlink { fill: none; stroke: rgb(171, 183, 216); stroke-width: 1.5px; }]]></style></defs>
    <g transform="translate(-459.4797749322868,-391.63712360000284) scale(2.02791895958006)"><line class="link" x1="465.83493327216553" y1="340.7261898855569" x2="406.49337163409757" y2="413.95214635914675"/><line class="link" x1="406.49337163409757" y1="413.95214635914675" x2="423.2434843226636" y2="320.1890886631086"/><line class="link" x1="423.2434843226636" y1="320.1890886631086" x2="481.1583637591725" y2="395.22414179674513"/><line class="link" x1="423.2434843226636" y1="320.1890886631086" x2="335.0894022914221" y2="353.11066595743057"/><line class="link" x1="423.2434843226636" y1="320.1890886631086" x2="454.29535535356104" y2="230.68769999377898"/><line class="link" x1="423.2434843226636" y1="320.1890886631086" x2="443.66498636537307" y2="412.7193339284122"/><line class="link" x1="423.2434843226636" y1="320.1890886631086" x2="404.066664981913" y2="227.76242536142337"/><line class="link" x1="423.2434843226636" y1="320.1890886631086" x2="513.3027188240711" y2="291.14714809452204"/><line class="link" x1="423.2434843226636" y1="320.1890886631086" x2="367.23719006875825" y2="396.13690399403646"/><line class="link" x1="423.2434843226636" y1="320.1890886631086" x2="491.12497131300466" y2="253.84968440990266"/><line class="link" x1="423.2434843226636" y1="320.1890886631086" x2="514.5687285137508" y2="350.3595245049242"/><line class="link" x1="423.2434843226636" y1="320.1890886631086" x2="341.76453769227504" y2="273.2614781190707"/><line class="link" x1="514.5687285137508" y1="350.3595245049242" x2="604.62567189537" y2="379.73799698465075"/><line class="link" x1="604.62567189537" y1="379.73799698465075" x2="543.76041325414" y2="451.9806844063387"/><line class="link" x1="604.62567189537" y1="379.73799698465075" x2="631.6281339276567" y2="289.3010149474306"/><line class="link" x1="604.62567189537" y1="379.73799698465075" x2="655.1647717011999" y2="458.7380871645533"/><line class="link" x1="604.62567189537" y1="379.73799698465075" x2="587.1323736420168" y2="286.91339456563264"/><line class="link" x1="604.62567189537" y1="379.73799698465075" x2="676.6320824682313" y2="319.3623641553752"/><line class="link" x1="604.62567189537" y1="379.73799698465075" x2="588.3573328918753" y2="472.62826493774105"/><g class="node" transform="translate(465.83493327216553, 340.7261898855569)"><circle r="20" style="fill: rgb(69, 114, 24);"/><text dy=".15em">/</text></g><g class="node" transform="translate(406.49337163409757, 413.95214635914675)"><circle r="17" style="fill: rgb(102, 168, 36);"/><text dy=".15em">https/</text></g><g class="node" transform="translate(481.1583637591725, 395.22414179674513)"><circle r="11" style="fill: rgb(230, 143, 143);"/><text dy=".15em"/></g><g class="node" transform="translate(454.29535535356104, 230.68769999377898)"><circle r="11" style="fill: rgb(166, 224, 108);"/><text dy=".15em"/></g><g class="node" transform="translate(443.66498636537307, 412.7193339284122)"><circle r="11" style="fill: rgb(166, 224, 108);"/><text dy=".15em"/></g><g class="node" transform="translate(404.066664981913, 227.76242536142337)"><circle r="11" style="fill: rgb(166, 224, 108);"/><text dy=".15em"/></g><g class="node" transform="translate(513.3027188240711, 291.14714809452204)"><circle r="11" style="fill: rgb(166, 224, 108);"/><text dy=".15em"/></g><g class="node" transform="translate(367.23719006875825, 396.13690399403646)"><circle r="11" style="fill: rgb(166, 224, 108);"/><text dy=".15em"/></g><g class="node" transform="translate(491.12497131300466, 253.84968440990266)"><circle r="11" style="fill: rgb(166, 224, 108);"/><text dy=".15em"/></g><g class="node" transform="translate(514.5687285137508, 350.3595245049242)"><circle r="11" style="fill: rgb(166, 224, 108);"/><text dy=".15em"/></g><g class="node" transform="translate(604.62567189537, 379.73799698465075)"><circle r="8" style="fill: rgb(196, 234, 158);"/><text dy=".15em"/></g><g class="node" transform="translate(543.76041325414, 451.9806844063387)"><circle r="5" style="fill: rgb(230, 246, 213);"/><text dy=".15em"/></g><g class="node" transform="translate(631.6281339276567, 289.3010149474306)"><circle r="5" style="fill: rgb(230, 246, 213);"/><text dy=".15em"/></g><g class="node" transform="translate(655.1647717011999, 458.7380871645533)"><circle r="5" style="fill: rgb(230, 246, 213);"/><text dy=".15em"/></g><g class="node" transform="translate(587.1323736420168, 286.91339456563264)"><circle r="5" style="fill: rgb(230, 246, 213);"/><text dy=".15em"/></g><g class="node" transform="translate(676.6320824682313, 319.3623641553752)"><circle r="5" style="fill: rgb(230, 246, 213);"/><text dy=".15em"/></g><g class="node" transform="translate(588.3573328918753, 472.62826493774105)"><circle r="5" style="fill: rgb(230, 246, 213);"/><text dy=".15em"/></g><g class="node" transform="translate(341.76453769227504, 273.2614781190707)"><circle r="11" style="fill: rgb(166, 224, 108);"/><text dy=".15em"/></g><g class="node" transform="translate(423.2434843226636, 320.1890886631086)"><circle r="14" style="fill: rgb(133, 212, 53);"/><text dy=".15em">mos2es.com/</text></g><g class="node" transform="translate(335.0894022914221, 353.11066595743057)"><circle r="11" style="fill: rgb(166, 224, 108);"/><text dy=".15em"/></g></g>
  </svg>